<?xml version="1.0" encoding="UTF-8"?>
<svg id="Layer_2" data-name="Layer 2" xmlns="http://www.w3.org/2000/svg" viewBox="0 0 776.74 593.6">
  <defs>
    <style>
      .cls-1 {
        fill: #fff;
      }

      .cls-2 {
        fill: #00accb;
      }
    </style>
  </defs>
  <g id="Layer_1-2" data-name="Layer 1">
    <g>
      <path class="cls-2" d="m233.92,321.47v-13.03c0-22.83-.02-45.65.03-68.5.02-9.03,1.49-10.25,8.42-6.94,31.36,15.03,62.71,30.11,95.21,45.72-34.79,14.36-68.55,28.27-103.66,42.75M502.34,70.05c-34.75,14.31-68.24,28.12-102.06,42.06.75.74.99,1.11,1.31,1.27,31.34,15.06,62.67,30.14,94.03,45.16,5.07,2.44,6.75,1.07,6.77-5.44.05-15.87-.05-31.73-.06-47.59-.02-11.05,0-22.11,0-35.45m-225.12,92.18c-.16-.77-.32-1.56-.48-2.33,74.16-32.29,148.32-64.57,224.08-97.55-5.25-2.68-9.03-4.72-12.87-6.56-36.85-17.79-73.71-35.53-110.56-53.35-5.5-2.66-10.89-3.48-16.6-.72-39.59,19.07-79.2,38.11-118.84,57.04-5.02,2.41-7.91,6.38-7.92,12.72-.08,32.87-.1,65.75-.08,98.62.02,6.62,2.18,11.53,7.84,14.25,48.49,23.18,96.92,46.57,145.45,69.65,2.74,1.3,6.53,1.47,9.32.38,18.87-7.41,37.6-15.33,56.38-23.04,1.73-.72,3.59-1.04,5.39-1.54.15.63.29,1.27.43,1.89-73.71,32.1-147.4,64.21-222.19,96.78,3,1.78,4.86,3.1,6.87,4.06,39.25,18.83,78.52,37.6,117.76,56.45,5.29,2.53,10.3,2.07,15.51-.45,39.06-18.83,78.17-37.52,117.25-56.29,6.13-2.95,8.31-6.98,8.32-15.1.06-32.02.11-64.02.15-96.02,0-8.02-2.17-11.87-8.52-14.92-48.3-23.16-96.59-46.36-144.95-69.33-2.42-1.14-5.81-1.06-8.32-.06-17.1,6.77-34.09,13.97-51.14,20.95-4.04,1.65-8.2,2.98-12.29,4.46"/>
      <g>
        <g>
          <path class="cls-1" d="m21.18,491.62c2.23,13.1,13.94,14.91,22.02,14.91,7.66,0,19.37-2.23,19.37-12.4,0-21.18-59.23-7.53-59.23-44.73,0-20.49,19.23-30.1,37.21-30.1,20.76,0,39.86,9.06,39.86,32.05l-21.18-3.07c-2.65-11.57-12.82-11.98-19.65-11.98s-15.05,2.93-15.05,11.29c0,7.39,4.74,9.06,29.68,15.05,7.39,1.81,29.54,6.41,29.54,28.99,0,18.26-14.21,31.91-41.39,31.91-22.3,0-42.36-10.87-42.36-35.4l21.18,3.48Z"/>
          <path class="cls-1" d="m171.13,478.52h-46.13v42.36h-21.32v-99.78h21.32v36.09h46.13v-35.81h21.46v99.5h-21.46v-42.36Z"/>
          <path class="cls-1" d="m242.72,456.29l13.3,23.88-21.55,38.95-1.13,2.04h-26.52l3.26-5.89,32.65-58.99Zm79.33,64.88h-26.52l-1.13-2.04-19.85-35.88-9.73-17.57-.39-.7-13.3-23.88.04-.08,1.06-1.92,8.66-15.63,1.02-2.2h5.08l.98,2.19,8.66,15.64,42.17,76.18,3.26,5.89Z"/>
          <path class="cls-1" d="m356.4,482.43l-36.65-60.76h24.67l23.27,39.3,23.13-39.3h24.39l-36.93,61.32v38.18h-21.88v-38.74Z"/>
          <path class="cls-1" d="m459.52,481.45v21.18h56.16v18.39h-77.34v-99.78h72.61v18.4h-51.42v22.44h45.43v19.37h-45.43Z"/>
          <path class="cls-1" d="m566.76,456.29l13.3,23.88-21.55,38.95-1.13,2.04h-26.52l3.26-5.89,32.65-58.99Zm79.33,64.88h-26.52l-1.13-2.04-19.85-35.88-9.73-17.57-.39-.7-13.3-23.88.04-.08,1.06-1.92,8.66-15.63,1.02-2.2h5.08l.98,2.19,8.66,15.64,42.17,76.18,3.26,5.89Z"/>
          <path class="cls-1" d="m697.4,456.29l13.3,23.88-21.55,38.95-1.13,2.04h-26.52l3.26-5.89,32.65-58.99Zm79.33,64.88h-26.52l-1.13-2.04-19.85-35.88-9.73-17.57-.39-.7-13.3-23.88.04-.08,1.06-1.92,8.66-15.63,1.02-2.2h5.08l.98,2.19,8.66,15.64,42.17,76.18,3.26,5.89Z"/>
        </g>
        <g>
          <path class="cls-1" d="m157.42,591.64c-2.38-1.3-4.23-3.13-5.55-5.48-1.32-2.35-1.98-5.04-1.98-8.07s.66-5.72,1.98-8.07c1.32-2.35,3.17-4.18,5.55-5.48,2.38-1.3,5.1-1.95,8.16-1.95,2.83,0,5.38.52,7.63,1.57,2.25,1.05,4.09,2.56,5.52,4.52,1.43,1.97,2.37,4.28,2.83,6.95h-10.07c-.4-1.13-1.08-2.03-2.06-2.7s-2.1-1-3.38-1c-1.73,0-3.12.57-4.19,1.7-1.06,1.13-1.59,2.62-1.59,4.46s.53,3.29,1.59,4.44c1.06,1.15,2.43,1.72,4.1,1.72,1.33,0,2.49-.34,3.48-1.02.99-.68,1.7-1.61,2.12-2.8h10.11c-.34,2.63-1.24,4.94-2.7,6.93-1.46,1.98-3.34,3.52-5.63,4.61-2.29,1.09-4.86,1.64-7.69,1.64-3.12,0-5.86-.65-8.24-1.95Z"/>
          <path class="cls-1" d="m195.19,591.62c-2.49-1.32-4.43-3.15-5.82-5.5-1.39-2.35-2.08-5.03-2.08-8.03s.69-5.68,2.08-8.03c1.39-2.35,3.33-4.19,5.82-5.5,2.49-1.32,5.34-1.98,8.54-1.98s6.09.66,8.58,1.98c2.49,1.32,4.43,3.15,5.82,5.5,1.39,2.35,2.08,5.03,2.08,8.03s-.69,5.68-2.08,8.03c-1.39,2.35-3.33,4.19-5.82,5.5-2.49,1.32-5.35,1.98-8.58,1.98s-6.05-.66-8.54-1.98Zm4.16-9.09c1.13,1.15,2.59,1.72,4.38,1.72s3.25-.57,4.4-1.72c1.15-1.15,1.72-2.63,1.72-4.44s-.57-3.29-1.72-4.44c-1.15-1.15-2.61-1.72-4.4-1.72s-3.24.57-4.38,1.72c-1.13,1.15-1.7,2.63-1.7,4.44s.57,3.29,1.7,4.44Z"/>
          <path class="cls-1" d="m227.39,563.22h8.33l9.26,12.49,9.31-12.49h8.29v29.74h-10.03v-6.84l.09-6.12h-.13l-4.67,6.42h-5.69l-4.67-6.46-.13.04.08,6.12v6.84h-10.03v-29.74Z"/>
          <path class="cls-1" d="m271.33,563.22h8.33l9.26,12.49,9.31-12.49h8.29v29.74h-10.03v-6.84l.09-6.12h-.13l-4.67,6.42h-5.69l-4.67-6.46-.13.04.08,6.12v6.84h-10.03v-29.74Z"/>
          <path class="cls-1" d="m321.4,592.04c-2.05-1.03-3.63-2.53-4.72-4.48-1.09-1.95-1.64-4.28-1.64-6.97v-17.38h10.24v16.83c0,2.75,1.13,4.12,3.4,4.12s3.4-1.37,3.4-4.12v-16.83h10.28v17.38c0,2.69-.55,5.01-1.64,6.97-1.09,1.95-2.67,3.45-4.74,4.48-2.07,1.03-4.5,1.55-7.31,1.55s-5.23-.52-7.29-1.55Z"/>
          <path class="cls-1" d="m350.91,563.22h8.33l9.52,12.83h.17l-.08-3.78v-9.05h10.07v29.74h-8.33l-9.56-12.96h-.13l.08,3.91v9.05h-10.07v-29.74Z"/>
          <path class="cls-1" d="m387.62,563.22h10.28v29.74h-10.28v-29.74Z"/>
          <path class="cls-1" d="m412.6,591.64c-2.38-1.3-4.23-3.13-5.55-5.48-1.32-2.35-1.98-5.04-1.98-8.07s.66-5.72,1.98-8.07c1.32-2.35,3.17-4.18,5.55-5.48,2.38-1.3,5.1-1.95,8.16-1.95,2.83,0,5.38.52,7.63,1.57,2.25,1.05,4.09,2.56,5.52,4.52,1.43,1.97,2.37,4.28,2.83,6.95h-10.07c-.4-1.13-1.08-2.03-2.06-2.7s-2.1-1-3.38-1c-1.73,0-3.12.57-4.19,1.7s-1.59,2.62-1.59,4.46.53,3.29,1.59,4.44c1.06,1.15,2.43,1.72,4.1,1.72,1.33,0,2.49-.34,3.48-1.02.99-.68,1.7-1.61,2.12-2.8h10.11c-.34,2.63-1.24,4.94-2.7,6.93-1.46,1.98-3.34,3.52-5.63,4.61-2.29,1.09-4.86,1.64-7.69,1.64-3.12,0-5.86-.65-8.24-1.95Z"/>
          <path class="cls-1" d="m450.8,563.22h10.71l11.09,29.74h-10.79l-1.32-3.7h-8.71l-1.32,3.7h-10.71l11.05-29.74Zm8.07,19.25l-2.63-8.16h-.17l-2.59,8.16h5.4Z"/>
          <path class="cls-1" d="m482.41,572.52h-8.62v-9.3h27.53v9.3h-8.62v20.44h-10.28v-20.44Z"/>
          <path class="cls-1" d="m508.59,563.22h10.28v29.74h-10.28v-29.74Z"/>
          <path class="cls-1" d="m533.95,591.62c-2.49-1.32-4.43-3.15-5.82-5.5-1.39-2.35-2.08-5.03-2.08-8.03s.69-5.68,2.08-8.03c1.39-2.35,3.33-4.19,5.82-5.5,2.49-1.32,5.34-1.98,8.54-1.98s6.09.66,8.58,1.98c2.49,1.32,4.43,3.15,5.82,5.5,1.39,2.35,2.08,5.03,2.08,8.03s-.69,5.68-2.08,8.03c-1.39,2.35-3.33,4.19-5.82,5.5-2.49,1.32-5.35,1.98-8.58,1.98s-6.05-.66-8.54-1.98Zm4.16-9.09c1.13,1.15,2.59,1.72,4.38,1.72s3.25-.57,4.4-1.72c1.15-1.15,1.72-2.63,1.72-4.44s-.57-3.29-1.72-4.44c-1.15-1.15-2.61-1.72-4.4-1.72s-3.24.57-4.38,1.72c-1.13,1.15-1.7,2.63-1.7,4.44s.57,3.29,1.7,4.44Z"/>
          <path class="cls-1" d="m566.16,563.22h8.33l9.52,12.83h.17l-.08-3.78v-9.05h10.07v29.74h-8.33l-9.56-12.96h-.13l.08,3.91v9.05h-10.07v-29.74Z"/>
          <path class="cls-1" d="m604.72,590.85c-2.25-1.83-3.38-4.38-3.38-7.67h9.81c0,.96.25,1.7.76,2.21.51.51,1.25.76,2.21.76.82,0,1.46-.16,1.91-.49.45-.33.68-.79.68-1.38,0-.74-.39-1.34-1.17-1.81-.78-.47-2.02-.84-3.72-1.13-3.51-.59-6.1-1.66-7.78-3.19-1.67-1.53-2.51-3.6-2.51-6.2,0-2.92,1.07-5.21,3.21-6.88,2.14-1.67,5.08-2.51,8.82-2.51,2.55,0,4.77.41,6.65,1.23,1.88.82,3.34,2.01,4.38,3.55,1.03,1.54,1.57,3.35,1.59,5.42h-9.6c0-.93-.25-1.65-.74-2.15-.5-.5-1.2-.74-2.1-.74-.79,0-1.42.17-1.87.51-.45.34-.68.79-.68,1.36,0,.68.36,1.23,1.08,1.66.72.42,1.98.81,3.76,1.15,3.71.71,6.42,1.81,8.14,3.31,1.71,1.5,2.57,3.53,2.57,6.08,0,3.03-1.1,5.4-3.31,7.1-2.21,1.7-5.3,2.55-9.26,2.55s-7.2-.91-9.45-2.74Z"/>
        </g>
      </g>
    </g>
  </g>
</svg>